<svg width="248" height="50" fill="none" xmlns="http://www.w3.org/2000/svg"><path d="M239.133 18.7h-49.785v24.023h49.785V18.699z" fill="#FBB03B"/><path d="M35.988 33.055v5.683h-3.32V22.605h6.309c1.21 0 2.285.215 3.203.665.918.449 1.62 1.074 2.129 1.894.488.82.742 1.738.742 2.793 0 1.582-.547 2.832-1.621 3.75-1.075.918-2.578 1.367-4.492 1.367h-2.95v-.02zm0-2.696h2.969c.879 0 1.543-.215 2.012-.625.468-.41.683-.996.683-1.777 0-.781-.234-1.426-.703-1.914-.468-.488-1.113-.742-1.933-.762h-3.047v5.078h.02zM53.234 29.754a8.862 8.862 0 0 0-1.152-.098c-1.21 0-2.012.41-2.383 1.23v7.852h-3.203V26.746h3.027l.098 1.426c.645-1.094 1.543-1.66 2.676-1.66.351 0 .684.039.996.136l-.059 3.106zM53.918 32.645c0-1.192.234-2.247.684-3.184a4.943 4.943 0 0 1 1.972-2.168c.86-.508 1.856-.762 3.008-.762 1.621 0 2.95.489 3.965 1.485 1.016.996 1.601 2.343 1.719 4.043l.02.82c0 1.836-.509 3.32-1.544 4.434-1.035 1.113-2.402 1.66-4.14 1.66-1.739 0-3.106-.547-4.141-1.66-1.035-1.114-1.543-2.618-1.543-4.532v-.136zm3.203.214c0 1.133.215 2.012.645 2.618.43.605 1.035.898 1.836.898.78 0 1.386-.293 1.816-.898.43-.606.645-1.543.645-2.852 0-1.113-.215-1.992-.645-2.598-.43-.605-1.055-.918-1.836-.918-.781 0-1.387.313-1.816.918-.43.606-.645 1.563-.645 2.832zM70.695 23.797v2.95h2.051v2.343h-2.05v5.996c0 .45.077.762.253.957.176.195.489.293.977.293.351 0 .664-.02.937-.078v2.422a6.445 6.445 0 0 1-1.933.293c-2.246 0-3.399-1.133-3.438-3.399V29.11h-1.758v-2.343h1.758v-2.95h3.203v-.02zM79.445 38.973c-1.757 0-3.183-.547-4.297-1.621-1.113-1.075-1.66-2.52-1.66-4.317v-.312c0-1.211.235-2.285.703-3.242.47-.958 1.133-1.68 1.973-2.188.86-.508 1.836-.762 2.93-.762 1.64 0 2.93.528 3.867 1.543.937 1.035 1.406 2.5 1.406 4.395v1.308h-7.636c.097.782.41 1.407.937 1.895.527.469 1.172.703 1.973.703 1.23 0 2.207-.45 2.89-1.348l1.582 1.758a4.744 4.744 0 0 1-1.953 1.582c-.82.41-1.719.606-2.715.606zm-.37-9.864c-.645 0-1.153.215-1.544.645-.39.43-.644 1.055-.762 1.855h4.454v-.254c-.02-.722-.215-1.27-.586-1.66-.352-.39-.88-.586-1.563-.586zM90.95 36.395c.585 0 1.073-.157 1.444-.489.372-.332.567-.761.587-1.289h3.007c0 .82-.234 1.563-.664 2.227-.43.683-1.035 1.21-1.797 1.582a5.68 5.68 0 0 1-2.52.566c-1.718 0-3.066-.547-4.062-1.64-.996-1.094-1.484-2.598-1.484-4.512v-.215c0-1.855.488-3.32 1.484-4.434.977-1.093 2.325-1.66 4.043-1.66 1.504 0 2.696.43 3.614 1.29.898.859 1.367 1.991 1.386 3.417h-3.007c-.02-.625-.215-1.133-.587-1.523-.37-.39-.859-.586-1.464-.586-.743 0-1.309.273-1.7.82-.39.547-.566 1.426-.566 2.656v.333c0 1.23.195 2.128.567 2.656.37.527.937.8 1.718.8zM101.516 23.797v2.95h2.05v2.343h-2.05v5.996c0 .45.078.762.254.957.175.195.488.293.976.293.352 0 .664-.02.938-.078v2.422a6.448 6.448 0 0 1-1.934.293c-2.246 0-3.398-1.133-3.438-3.399V29.11h-1.757v-2.343h1.757v-2.95h3.204v-.02zM123.449 22.605V33.25c0 1.758-.547 3.164-1.66 4.2-1.113 1.034-2.617 1.542-4.531 1.542-1.895 0-3.379-.508-4.492-1.504-1.114-.996-1.68-2.363-1.7-4.12V22.604h3.321V33.27c0 1.054.254 1.835.761 2.304.508.489 1.211.723 2.11.723 1.875 0 2.812-.977 2.851-2.95V22.606h3.34zM130.109 33.934l-1.152 1.152v3.652h-3.203V21.707h3.203v9.434l.625-.801 3.066-3.613h3.848l-4.336 5.02 4.707 6.991h-3.691l-3.067-4.804zM144.484 29.754a8.848 8.848 0 0 0-1.152-.098c-1.211 0-2.012.41-2.383 1.23v7.852h-3.203V26.746h3.027l.098 1.426c.645-1.094 1.543-1.66 2.676-1.66.351 0 .683.039.996.136l-.059 3.106zM152.688 38.758c-.157-.293-.254-.645-.313-1.074-.781.859-1.777 1.289-3.027 1.289-1.172 0-2.149-.332-2.93-1.016-.781-.684-1.152-1.543-1.152-2.578 0-1.27.468-2.246 1.406-2.93.937-.683 2.305-1.015 4.082-1.035h1.484v-.684c0-.546-.136-.996-.429-1.328-.293-.332-.743-.508-1.348-.508-.547 0-.957.137-1.27.391-.312.254-.468.606-.468 1.074h-3.203c0-.703.214-1.347.644-1.933.43-.586 1.035-1.055 1.816-1.387.782-.332 1.661-.508 2.637-.508 1.485 0 2.656.371 3.516 1.114.859.742 1.308 1.796 1.308 3.125v5.195c0 1.133.176 1.992.469 2.578v.195h-3.222v.02zm-2.637-2.246c.469 0 .918-.098 1.308-.313.391-.215.704-.488.879-.84v-2.07h-1.191c-1.602 0-2.461.547-2.559 1.66l-.019.196c0 .39.136.722.429.996.274.254.664.37 1.153.37zM157.453 23.64c0-.488.156-.878.488-1.19.332-.313.762-.47 1.309-.47.547 0 .977.157 1.309.47.332.312.488.702.488 1.19 0 .489-.156.88-.488 1.192-.332.313-.762.469-1.309.469-.547 0-.977-.156-1.309-.469-.332-.313-.488-.703-.488-1.191zm3.399 15.118h-3.223V26.766h3.223v11.992zM166.086 26.746l.098 1.387c.859-1.074 2.011-1.602 3.457-1.602 1.269 0 2.226.371 2.832 1.114.605.742.937 1.855.957 3.34v7.753h-3.203v-7.675c0-.684-.157-1.172-.45-1.485-.293-.312-.781-.469-1.484-.469-.898 0-1.582.391-2.031 1.153v8.457h-3.203V26.727h3.027v.02zM180.969 38.973c-1.758 0-3.184-.547-4.297-1.621-1.113-1.075-1.66-2.52-1.66-4.317v-.312c0-1.211.234-2.285.703-3.242.469-.958 1.133-1.68 1.972-2.188.86-.508 1.836-.762 2.93-.762 1.641 0 2.93.528 3.867 1.543.938 1.035 1.407 2.5 1.407 4.395v1.308h-7.637c.098.782.41 1.407.937 1.895.528.469 1.172.703 1.973.703 1.231 0 2.207-.45 2.891-1.348l1.582 1.758a4.75 4.75 0 0 1-1.953 1.582c-.821.41-1.719.606-2.715.606zm-.371-9.864c-.645 0-1.153.215-1.543.645-.391.43-.645 1.055-.762 1.855h4.453v-.254c-.019-.722-.215-1.27-.586-1.66-.351-.39-.879-.586-1.562-.586zM206.711 38.758h-3.32l-6.485-10.625v10.625h-3.32V22.605h3.32l6.485 10.645V22.605h3.32v16.153zM208.645 32.645c0-1.192.234-2.247.683-3.184a4.94 4.94 0 0 1 1.973-2.168c.859-.508 1.855-.762 3.008-.762 1.621 0 2.949.489 3.964 1.485 1.016.996 1.602 2.343 1.719 4.043l.02.82c0 1.836-.508 3.32-1.543 4.434-1.035 1.113-2.403 1.66-4.141 1.66s-3.105-.547-4.14-1.66c-1.036-1.114-1.543-2.618-1.543-4.532v-.136zm3.203.214c0 1.133.215 2.012.644 2.618.43.605 1.035.898 1.836.898.781 0 1.387-.293 1.817-.898.429-.606.664-1.543.664-2.852 0-1.113-.215-1.992-.664-2.598-.43-.605-1.055-.918-1.836-.918-.782 0-1.387.313-1.817.918-.429.606-.644 1.563-.644 2.832zM231.691 34.383l1.582-7.637h3.086l-3.066 11.992h-2.676l-2.265-7.558-2.266 7.558h-2.676l-3.066-11.992h3.086l1.562 7.637 2.188-7.637h2.324l2.187 7.637z" fill="#fff"/><path d="m26.145 9.988-.157.645-.136.527-3.282-2.07-3.203-.567-3.203.567-3.281 2.07-.117-.527-.157-.645 3.125-2.265L19.367 7l3.652.723 3.126 2.265z" fill="#FBB03B"/><path d="m30.734 11.688-.254-1.133.118-.957-2.91 1.64-1.211 1.035-.684.665.215-.84.098-.41.234-.801.078-1.29-.45-.292-.39.215-.098.878-.234.665.235.488-.079.39-1.27.82-1.542 1.68-.274 1.211-1.562.743-.04.039-.526-.215v-.645l.39-.898.059-1.328-.606-.762-.664-.117-.664.117-.586.762.059 1.328.37.898v.645l-.526.215-.02-.04-1.582-.742-.273-1.21-1.543-1.68-1.25-.82-.079-.391.235-.489-.235-.664-.097-.878-.39-.215-.45.293.059 1.289.234.8.078.254.234.996-.683-.585-1.211-1.114-2.91-1.64.117.957L8 11.688v.39l.742.332-.156.762 1.172.937.332.996 1.562.88 2.012 4.042 3.125 3.203-.762 2.266-.625 9.16 1.797 4.102h4.336l1.817-4.102-.645-9.16-.762-2.265 3.125-3.204 2.012-4.043 1.582-.879.332-.996 1.152-.937-.156-.762.742-.332v-.39z" fill="#fff"/></svg>